<mxfile host="app.diagrams.net" modified="2022-12-05T14:00:46.990Z" agent="5.0 (Windows NT 10.0; Win64; x64) AppleWebKit/537.36 (KHTML, like Gecko) Chrome/107.0.0.0 Safari/537.36 Edg/107.0.1418.62" version="20.6.0" etag="QWL3AdArsP1VWgILt8dx" type="github">
  <diagram id="uMP2-gBXzRSnQIMD3LJw" name="Page-1">
    <mxGraphModel dx="1375" dy="794" grid="1" gridSize="10" guides="1" tooltips="1" connect="1" arrows="1" fold="1" page="1" pageScale="1" pageWidth="850" pageHeight="1100" math="0" shadow="0">
      <root>
        <mxCell id="0" />
        <mxCell id="1" parent="0" />
        <object label="" id="zLzugVfN4TNtNmc6y5zc-1">
          <mxCell style="shape=table;html=1;whiteSpace=wrap;startSize=0;container=1;collapsible=0;childLayout=tableLayout;flipH=0;flipV=0;movable=1;resizable=1;rotatable=1;deletable=1;editable=1;connectable=1;fontFamily=Georgia;swimlaneFillColor=none;fillColor=none;strokeColor=#B3B3B3;" vertex="1" parent="1">
            <mxGeometry x="270" y="300" width="250" height="249.0000000000001" as="geometry" />
          </mxCell>
        </object>
        <mxCell id="zLzugVfN4TNtNmc6y5zc-2" value="" style="shape=tableRow;horizontal=0;startSize=0;swimlaneHead=0;swimlaneBody=0;top=0;left=0;bottom=0;right=0;collapsible=0;dropTarget=0;fillColor=none;points=[[0,0.5],[1,0.5]];portConstraint=eastwest;movable=1;resizable=1;rotatable=1;deletable=1;editable=1;connectable=1;fontFamily=Georgia;swimlaneFillColor=none;strokeColor=#CCCCCC;" vertex="1" parent="zLzugVfN4TNtNmc6y5zc-1">
          <mxGeometry width="250" height="35" as="geometry" />
        </mxCell>
        <mxCell id="zLzugVfN4TNtNmc6y5zc-3" style="shape=partialRectangle;html=1;whiteSpace=wrap;connectable=1;fillColor=#dae8fc;top=0;left=0;bottom=0;right=0;overflow=hidden;movable=1;resizable=1;rotatable=1;deletable=1;editable=1;fontFamily=Georgia;swimlaneFillColor=none;strokeColor=#6c8ebf;" vertex="1" parent="zLzugVfN4TNtNmc6y5zc-2">
          <mxGeometry width="35" height="35" as="geometry">
            <mxRectangle width="35" height="35" as="alternateBounds" />
          </mxGeometry>
        </mxCell>
        <mxCell id="zLzugVfN4TNtNmc6y5zc-4" style="shape=partialRectangle;html=1;whiteSpace=wrap;connectable=1;fillColor=#dae8fc;top=0;left=0;bottom=0;right=0;overflow=hidden;movable=1;resizable=1;rotatable=1;deletable=1;editable=1;fontFamily=Georgia;swimlaneFillColor=none;strokeColor=#6c8ebf;" vertex="1" parent="zLzugVfN4TNtNmc6y5zc-2">
          <mxGeometry x="35" width="37" height="35" as="geometry">
            <mxRectangle width="37" height="35" as="alternateBounds" />
          </mxGeometry>
        </mxCell>
        <mxCell id="zLzugVfN4TNtNmc6y5zc-5" style="shape=partialRectangle;html=1;whiteSpace=wrap;connectable=1;fillColor=#dae8fc;top=0;left=0;bottom=0;right=0;overflow=hidden;movable=1;resizable=1;rotatable=1;deletable=1;editable=1;fontFamily=Georgia;swimlaneFillColor=none;strokeColor=#6c8ebf;" vertex="1" parent="zLzugVfN4TNtNmc6y5zc-2">
          <mxGeometry x="72" width="35" height="35" as="geometry">
            <mxRectangle width="35" height="35" as="alternateBounds" />
          </mxGeometry>
        </mxCell>
        <mxCell id="zLzugVfN4TNtNmc6y5zc-6" value="" style="shape=partialRectangle;html=1;whiteSpace=wrap;connectable=1;fillColor=none;top=0;left=0;bottom=0;right=0;overflow=hidden;movable=1;resizable=1;rotatable=1;deletable=1;editable=1;fontFamily=Georgia;swimlaneFillColor=none;strokeColor=#CCCCCC;" vertex="1" parent="zLzugVfN4TNtNmc6y5zc-2">
          <mxGeometry x="107" width="35" height="35" as="geometry">
            <mxRectangle width="35" height="35" as="alternateBounds" />
          </mxGeometry>
        </mxCell>
        <mxCell id="zLzugVfN4TNtNmc6y5zc-7" value="" style="shape=partialRectangle;html=1;whiteSpace=wrap;connectable=1;fillColor=#f8cecc;top=0;left=0;bottom=0;right=0;overflow=hidden;movable=1;resizable=1;rotatable=1;deletable=1;editable=1;fontFamily=Georgia;strokeColor=#b85450;swimlaneFillColor=none;" vertex="1" parent="zLzugVfN4TNtNmc6y5zc-2">
          <mxGeometry x="142" width="36" height="35" as="geometry">
            <mxRectangle width="36" height="35" as="alternateBounds" />
          </mxGeometry>
        </mxCell>
        <mxCell id="zLzugVfN4TNtNmc6y5zc-8" style="shape=partialRectangle;html=1;whiteSpace=wrap;connectable=1;fillColor=#f8cecc;top=0;left=0;bottom=0;right=0;overflow=hidden;movable=1;resizable=1;rotatable=1;deletable=1;editable=1;fontFamily=Georgia;strokeColor=#b85450;swimlaneFillColor=none;" vertex="1" parent="zLzugVfN4TNtNmc6y5zc-2">
          <mxGeometry x="178" width="37" height="35" as="geometry">
            <mxRectangle width="37" height="35" as="alternateBounds" />
          </mxGeometry>
        </mxCell>
        <mxCell id="zLzugVfN4TNtNmc6y5zc-9" value="" style="shape=partialRectangle;html=1;whiteSpace=wrap;connectable=1;fillColor=#f8cecc;top=0;left=0;bottom=0;right=0;overflow=hidden;movable=1;resizable=1;rotatable=1;deletable=1;editable=1;fontFamily=Georgia;strokeColor=#b85450;swimlaneFillColor=none;" vertex="1" parent="zLzugVfN4TNtNmc6y5zc-2">
          <mxGeometry x="215" width="35" height="35" as="geometry">
            <mxRectangle width="35" height="35" as="alternateBounds" />
          </mxGeometry>
        </mxCell>
        <mxCell id="zLzugVfN4TNtNmc6y5zc-10" style="shape=tableRow;horizontal=0;startSize=0;swimlaneHead=0;swimlaneBody=0;top=0;left=0;bottom=0;right=0;collapsible=0;dropTarget=0;fillColor=none;points=[[0,0.5],[1,0.5]];portConstraint=eastwest;movable=1;resizable=1;rotatable=1;deletable=1;editable=1;connectable=1;fontFamily=Georgia;swimlaneFillColor=none;strokeColor=#CCCCCC;" vertex="1" parent="zLzugVfN4TNtNmc6y5zc-1">
          <mxGeometry y="35" width="250" height="35" as="geometry" />
        </mxCell>
        <mxCell id="zLzugVfN4TNtNmc6y5zc-11" style="shape=partialRectangle;html=1;whiteSpace=wrap;connectable=1;fillColor=#dae8fc;top=0;left=0;bottom=0;right=0;overflow=hidden;movable=1;resizable=1;rotatable=1;deletable=1;editable=1;fontFamily=Georgia;swimlaneFillColor=none;strokeColor=#6c8ebf;" vertex="1" parent="zLzugVfN4TNtNmc6y5zc-10">
          <mxGeometry width="35" height="35" as="geometry">
            <mxRectangle width="35" height="35" as="alternateBounds" />
          </mxGeometry>
        </mxCell>
        <mxCell id="zLzugVfN4TNtNmc6y5zc-12" style="shape=partialRectangle;html=1;whiteSpace=wrap;connectable=1;fillColor=#dae8fc;top=0;left=0;bottom=0;right=0;overflow=hidden;movable=1;resizable=1;rotatable=1;deletable=1;editable=1;fontFamily=Georgia;swimlaneFillColor=none;strokeColor=#6c8ebf;" vertex="1" parent="zLzugVfN4TNtNmc6y5zc-10">
          <mxGeometry x="35" width="37" height="35" as="geometry">
            <mxRectangle width="37" height="35" as="alternateBounds" />
          </mxGeometry>
        </mxCell>
        <mxCell id="zLzugVfN4TNtNmc6y5zc-13" style="shape=partialRectangle;html=1;whiteSpace=wrap;connectable=1;fillColor=#dae8fc;top=0;left=0;bottom=0;right=0;overflow=hidden;movable=1;resizable=1;rotatable=1;deletable=1;editable=1;fontFamily=Georgia;swimlaneFillColor=none;strokeColor=#6c8ebf;" vertex="1" parent="zLzugVfN4TNtNmc6y5zc-10">
          <mxGeometry x="72" width="35" height="35" as="geometry">
            <mxRectangle width="35" height="35" as="alternateBounds" />
          </mxGeometry>
        </mxCell>
        <mxCell id="zLzugVfN4TNtNmc6y5zc-14" style="shape=partialRectangle;html=1;whiteSpace=wrap;connectable=1;fillColor=none;top=0;left=0;bottom=0;right=0;overflow=hidden;movable=1;resizable=1;rotatable=1;deletable=1;editable=1;fontFamily=Georgia;swimlaneFillColor=none;strokeColor=#CCCCCC;" vertex="1" parent="zLzugVfN4TNtNmc6y5zc-10">
          <mxGeometry x="107" width="35" height="35" as="geometry">
            <mxRectangle width="35" height="35" as="alternateBounds" />
          </mxGeometry>
        </mxCell>
        <mxCell id="zLzugVfN4TNtNmc6y5zc-15" style="shape=partialRectangle;html=1;whiteSpace=wrap;connectable=1;fillColor=#f8cecc;top=0;left=0;bottom=0;right=0;overflow=hidden;movable=1;resizable=1;rotatable=1;deletable=1;editable=1;fontFamily=Georgia;strokeColor=#b85450;swimlaneFillColor=none;" vertex="1" parent="zLzugVfN4TNtNmc6y5zc-10">
          <mxGeometry x="142" width="36" height="35" as="geometry">
            <mxRectangle width="36" height="35" as="alternateBounds" />
          </mxGeometry>
        </mxCell>
        <mxCell id="zLzugVfN4TNtNmc6y5zc-16" style="shape=partialRectangle;html=1;whiteSpace=wrap;connectable=1;fillColor=#f8cecc;top=0;left=0;bottom=0;right=0;overflow=hidden;movable=1;resizable=1;rotatable=1;deletable=1;editable=1;fontFamily=Georgia;strokeColor=#b85450;swimlaneFillColor=none;" vertex="1" parent="zLzugVfN4TNtNmc6y5zc-10">
          <mxGeometry x="178" width="37" height="35" as="geometry">
            <mxRectangle width="37" height="35" as="alternateBounds" />
          </mxGeometry>
        </mxCell>
        <mxCell id="zLzugVfN4TNtNmc6y5zc-17" style="shape=partialRectangle;html=1;whiteSpace=wrap;connectable=1;fillColor=#f8cecc;top=0;left=0;bottom=0;right=0;overflow=hidden;movable=1;resizable=1;rotatable=1;deletable=1;editable=1;fontFamily=Georgia;strokeColor=#b85450;swimlaneFillColor=none;" vertex="1" parent="zLzugVfN4TNtNmc6y5zc-10">
          <mxGeometry x="215" width="35" height="35" as="geometry">
            <mxRectangle width="35" height="35" as="alternateBounds" />
          </mxGeometry>
        </mxCell>
        <mxCell id="zLzugVfN4TNtNmc6y5zc-18" value="" style="shape=tableRow;horizontal=0;startSize=0;swimlaneHead=0;swimlaneBody=0;top=0;left=0;bottom=0;right=0;collapsible=0;dropTarget=0;fillColor=none;points=[[0,0.5],[1,0.5]];portConstraint=eastwest;movable=1;resizable=1;rotatable=1;deletable=1;editable=1;connectable=1;fontFamily=Georgia;swimlaneFillColor=none;strokeColor=#CCCCCC;" vertex="1" parent="zLzugVfN4TNtNmc6y5zc-1">
          <mxGeometry y="70" width="250" height="35" as="geometry" />
        </mxCell>
        <mxCell id="zLzugVfN4TNtNmc6y5zc-19" style="shape=partialRectangle;html=1;whiteSpace=wrap;connectable=1;fillColor=#dae8fc;top=0;left=0;bottom=0;right=0;overflow=hidden;movable=1;resizable=1;rotatable=1;deletable=1;editable=1;fontFamily=Georgia;swimlaneFillColor=none;strokeColor=#6c8ebf;" vertex="1" parent="zLzugVfN4TNtNmc6y5zc-18">
          <mxGeometry width="35" height="35" as="geometry">
            <mxRectangle width="35" height="35" as="alternateBounds" />
          </mxGeometry>
        </mxCell>
        <mxCell id="zLzugVfN4TNtNmc6y5zc-20" style="shape=partialRectangle;html=1;whiteSpace=wrap;connectable=1;fillColor=#dae8fc;top=0;left=0;bottom=0;right=0;overflow=hidden;movable=1;resizable=1;rotatable=1;deletable=1;editable=1;fontFamily=Georgia;swimlaneFillColor=none;strokeColor=#6c8ebf;" vertex="1" parent="zLzugVfN4TNtNmc6y5zc-18">
          <mxGeometry x="35" width="37" height="35" as="geometry">
            <mxRectangle width="37" height="35" as="alternateBounds" />
          </mxGeometry>
        </mxCell>
        <mxCell id="zLzugVfN4TNtNmc6y5zc-21" style="shape=partialRectangle;html=1;whiteSpace=wrap;connectable=1;fillColor=#dae8fc;top=0;left=0;bottom=0;right=0;overflow=hidden;movable=1;resizable=1;rotatable=1;deletable=1;editable=1;fontFamily=Georgia;swimlaneFillColor=none;strokeColor=#6c8ebf;" vertex="1" parent="zLzugVfN4TNtNmc6y5zc-18">
          <mxGeometry x="72" width="35" height="35" as="geometry">
            <mxRectangle width="35" height="35" as="alternateBounds" />
          </mxGeometry>
        </mxCell>
        <mxCell id="zLzugVfN4TNtNmc6y5zc-22" value="" style="shape=partialRectangle;html=1;whiteSpace=wrap;connectable=1;fillColor=none;top=0;left=0;bottom=0;right=0;overflow=hidden;movable=1;resizable=1;rotatable=1;deletable=1;editable=1;fontFamily=Georgia;swimlaneFillColor=none;strokeColor=#CCCCCC;" vertex="1" parent="zLzugVfN4TNtNmc6y5zc-18">
          <mxGeometry x="107" width="35" height="35" as="geometry">
            <mxRectangle width="35" height="35" as="alternateBounds" />
          </mxGeometry>
        </mxCell>
        <mxCell id="zLzugVfN4TNtNmc6y5zc-23" value="" style="shape=partialRectangle;html=1;whiteSpace=wrap;connectable=1;fillColor=#f8cecc;top=0;left=0;bottom=0;right=0;overflow=hidden;movable=1;resizable=1;rotatable=1;deletable=1;editable=1;fontFamily=Georgia;strokeColor=#b85450;swimlaneFillColor=none;" vertex="1" parent="zLzugVfN4TNtNmc6y5zc-18">
          <mxGeometry x="142" width="36" height="35" as="geometry">
            <mxRectangle width="36" height="35" as="alternateBounds" />
          </mxGeometry>
        </mxCell>
        <mxCell id="zLzugVfN4TNtNmc6y5zc-24" style="shape=partialRectangle;html=1;whiteSpace=wrap;connectable=1;fillColor=#f8cecc;top=0;left=0;bottom=0;right=0;overflow=hidden;movable=1;resizable=1;rotatable=1;deletable=1;editable=1;fontFamily=Georgia;strokeColor=#b85450;swimlaneFillColor=none;" vertex="1" parent="zLzugVfN4TNtNmc6y5zc-18">
          <mxGeometry x="178" width="37" height="35" as="geometry">
            <mxRectangle width="37" height="35" as="alternateBounds" />
          </mxGeometry>
        </mxCell>
        <mxCell id="zLzugVfN4TNtNmc6y5zc-25" value="" style="shape=partialRectangle;html=1;whiteSpace=wrap;connectable=1;fillColor=#f8cecc;top=0;left=0;bottom=0;right=0;overflow=hidden;movable=1;resizable=1;rotatable=1;deletable=1;editable=1;fontFamily=Georgia;strokeColor=#b85450;swimlaneFillColor=none;" vertex="1" parent="zLzugVfN4TNtNmc6y5zc-18">
          <mxGeometry x="215" width="35" height="35" as="geometry">
            <mxRectangle width="35" height="35" as="alternateBounds" />
          </mxGeometry>
        </mxCell>
        <mxCell id="zLzugVfN4TNtNmc6y5zc-26" style="shape=tableRow;horizontal=0;startSize=0;swimlaneHead=0;swimlaneBody=0;top=0;left=0;bottom=0;right=0;collapsible=0;dropTarget=0;fillColor=none;points=[[0,0.5],[1,0.5]];portConstraint=eastwest;movable=1;resizable=1;rotatable=1;deletable=1;editable=1;connectable=1;fontFamily=Georgia;swimlaneFillColor=none;strokeColor=#CCCCCC;" vertex="1" parent="zLzugVfN4TNtNmc6y5zc-1">
          <mxGeometry y="105" width="250" height="37" as="geometry" />
        </mxCell>
        <mxCell id="zLzugVfN4TNtNmc6y5zc-27" style="shape=partialRectangle;html=1;whiteSpace=wrap;connectable=1;fillColor=none;top=0;left=0;bottom=0;right=0;overflow=hidden;movable=1;resizable=1;rotatable=1;deletable=1;editable=1;fontFamily=Georgia;swimlaneFillColor=none;strokeColor=#CCCCCC;" vertex="1" parent="zLzugVfN4TNtNmc6y5zc-26">
          <mxGeometry width="35" height="37" as="geometry">
            <mxRectangle width="35" height="37" as="alternateBounds" />
          </mxGeometry>
        </mxCell>
        <mxCell id="zLzugVfN4TNtNmc6y5zc-28" style="shape=partialRectangle;html=1;whiteSpace=wrap;connectable=1;fillColor=none;top=0;left=0;bottom=0;right=0;overflow=hidden;movable=1;resizable=1;rotatable=1;deletable=1;editable=1;fontFamily=Georgia;swimlaneFillColor=none;strokeColor=#CCCCCC;" vertex="1" parent="zLzugVfN4TNtNmc6y5zc-26">
          <mxGeometry x="35" width="37" height="37" as="geometry">
            <mxRectangle width="37" height="37" as="alternateBounds" />
          </mxGeometry>
        </mxCell>
        <mxCell id="zLzugVfN4TNtNmc6y5zc-29" style="shape=partialRectangle;html=1;whiteSpace=wrap;connectable=1;top=0;left=0;bottom=0;right=0;overflow=hidden;movable=1;resizable=1;rotatable=1;deletable=1;editable=1;fontFamily=Georgia;swimlaneFillColor=none;fillColor=none;strokeColor=#CCCCCC;" vertex="1" parent="zLzugVfN4TNtNmc6y5zc-26">
          <mxGeometry x="72" width="35" height="37" as="geometry">
            <mxRectangle width="35" height="37" as="alternateBounds" />
          </mxGeometry>
        </mxCell>
        <mxCell id="zLzugVfN4TNtNmc6y5zc-30" style="shape=partialRectangle;html=1;whiteSpace=wrap;connectable=1;fillColor=none;top=0;left=0;bottom=0;right=0;overflow=hidden;movable=1;resizable=1;rotatable=1;deletable=1;editable=1;fontFamily=Georgia;swimlaneFillColor=none;strokeColor=#CCCCCC;" vertex="1" parent="zLzugVfN4TNtNmc6y5zc-26">
          <mxGeometry x="107" width="35" height="37" as="geometry">
            <mxRectangle width="35" height="37" as="alternateBounds" />
          </mxGeometry>
        </mxCell>
        <mxCell id="zLzugVfN4TNtNmc6y5zc-31" style="shape=partialRectangle;html=1;whiteSpace=wrap;connectable=1;top=0;left=0;bottom=0;right=0;overflow=hidden;movable=1;resizable=1;rotatable=1;deletable=1;editable=1;fontFamily=Georgia;swimlaneFillColor=none;fillColor=none;strokeColor=#CCCCCC;" vertex="1" parent="zLzugVfN4TNtNmc6y5zc-26">
          <mxGeometry x="142" width="36" height="37" as="geometry">
            <mxRectangle width="36" height="37" as="alternateBounds" />
          </mxGeometry>
        </mxCell>
        <mxCell id="zLzugVfN4TNtNmc6y5zc-32" style="shape=partialRectangle;html=1;whiteSpace=wrap;connectable=1;fillColor=none;top=0;left=0;bottom=0;right=0;overflow=hidden;pointerEvents=1;movable=1;resizable=1;rotatable=1;deletable=1;editable=1;fontFamily=Georgia;swimlaneFillColor=none;strokeColor=#CCCCCC;" vertex="1" parent="zLzugVfN4TNtNmc6y5zc-26">
          <mxGeometry x="178" width="37" height="37" as="geometry">
            <mxRectangle width="37" height="37" as="alternateBounds" />
          </mxGeometry>
        </mxCell>
        <mxCell id="zLzugVfN4TNtNmc6y5zc-33" style="shape=partialRectangle;html=1;whiteSpace=wrap;connectable=1;fillColor=none;top=0;left=0;bottom=0;right=0;overflow=hidden;pointerEvents=1;movable=1;resizable=1;rotatable=1;deletable=1;editable=1;fontFamily=Georgia;swimlaneFillColor=none;strokeColor=#CCCCCC;" vertex="1" parent="zLzugVfN4TNtNmc6y5zc-26">
          <mxGeometry x="215" width="35" height="37" as="geometry">
            <mxRectangle width="35" height="37" as="alternateBounds" />
          </mxGeometry>
        </mxCell>
        <mxCell id="zLzugVfN4TNtNmc6y5zc-34" style="shape=tableRow;horizontal=0;startSize=0;swimlaneHead=0;swimlaneBody=0;top=0;left=0;bottom=0;right=0;collapsible=0;dropTarget=0;fillColor=none;points=[[0,0.5],[1,0.5]];portConstraint=eastwest;movable=1;resizable=1;rotatable=1;deletable=1;editable=1;connectable=1;fontFamily=Georgia;swimlaneFillColor=none;strokeColor=#CCCCCC;" vertex="1" parent="zLzugVfN4TNtNmc6y5zc-1">
          <mxGeometry y="142" width="250" height="36" as="geometry" />
        </mxCell>
        <mxCell id="zLzugVfN4TNtNmc6y5zc-35" style="shape=partialRectangle;html=1;whiteSpace=wrap;connectable=1;fillColor=#f8cecc;top=0;left=0;bottom=0;right=0;overflow=hidden;movable=1;resizable=1;rotatable=1;deletable=1;editable=1;fontFamily=Georgia;strokeColor=#b85450;swimlaneFillColor=none;" vertex="1" parent="zLzugVfN4TNtNmc6y5zc-34">
          <mxGeometry width="35" height="36" as="geometry">
            <mxRectangle width="35" height="36" as="alternateBounds" />
          </mxGeometry>
        </mxCell>
        <mxCell id="zLzugVfN4TNtNmc6y5zc-36" style="shape=partialRectangle;html=1;whiteSpace=wrap;connectable=1;fillColor=#f8cecc;top=0;left=0;bottom=0;right=0;overflow=hidden;movable=1;resizable=1;rotatable=1;deletable=1;editable=1;fontFamily=Georgia;strokeColor=#b85450;swimlaneFillColor=none;" vertex="1" parent="zLzugVfN4TNtNmc6y5zc-34">
          <mxGeometry x="35" width="37" height="36" as="geometry">
            <mxRectangle width="37" height="36" as="alternateBounds" />
          </mxGeometry>
        </mxCell>
        <mxCell id="zLzugVfN4TNtNmc6y5zc-37" style="shape=partialRectangle;html=1;whiteSpace=wrap;connectable=1;fillColor=#f8cecc;top=0;left=0;bottom=0;right=0;overflow=hidden;movable=1;resizable=1;rotatable=1;deletable=1;editable=1;fontFamily=Georgia;strokeColor=#b85450;swimlaneFillColor=none;" vertex="1" parent="zLzugVfN4TNtNmc6y5zc-34">
          <mxGeometry x="72" width="35" height="36" as="geometry">
            <mxRectangle width="35" height="36" as="alternateBounds" />
          </mxGeometry>
        </mxCell>
        <mxCell id="zLzugVfN4TNtNmc6y5zc-38" style="shape=partialRectangle;html=1;whiteSpace=wrap;connectable=1;fillColor=none;top=0;left=0;bottom=0;right=0;overflow=hidden;movable=1;resizable=1;rotatable=1;deletable=1;editable=1;fontFamily=Georgia;swimlaneFillColor=none;strokeColor=#CCCCCC;" vertex="1" parent="zLzugVfN4TNtNmc6y5zc-34">
          <mxGeometry x="107" width="35" height="36" as="geometry">
            <mxRectangle width="35" height="36" as="alternateBounds" />
          </mxGeometry>
        </mxCell>
        <mxCell id="zLzugVfN4TNtNmc6y5zc-39" style="shape=partialRectangle;html=1;whiteSpace=wrap;connectable=1;fillColor=#dae8fc;top=0;left=0;bottom=0;right=0;overflow=hidden;movable=1;resizable=1;rotatable=1;deletable=1;editable=1;fontFamily=Georgia;swimlaneFillColor=none;strokeColor=#6c8ebf;" vertex="1" parent="zLzugVfN4TNtNmc6y5zc-34">
          <mxGeometry x="142" width="36" height="36" as="geometry">
            <mxRectangle width="36" height="36" as="alternateBounds" />
          </mxGeometry>
        </mxCell>
        <mxCell id="zLzugVfN4TNtNmc6y5zc-40" style="shape=partialRectangle;html=1;whiteSpace=wrap;connectable=1;fillColor=#dae8fc;top=0;left=0;bottom=0;right=0;overflow=hidden;pointerEvents=1;movable=1;resizable=1;rotatable=1;deletable=1;editable=1;fontFamily=Georgia;swimlaneFillColor=none;strokeColor=#6c8ebf;" vertex="1" parent="zLzugVfN4TNtNmc6y5zc-34">
          <mxGeometry x="178" width="37" height="36" as="geometry">
            <mxRectangle width="37" height="36" as="alternateBounds" />
          </mxGeometry>
        </mxCell>
        <mxCell id="zLzugVfN4TNtNmc6y5zc-41" style="shape=partialRectangle;html=1;whiteSpace=wrap;connectable=1;fillColor=#dae8fc;top=0;left=0;bottom=0;right=0;overflow=hidden;pointerEvents=1;movable=1;resizable=1;rotatable=1;deletable=1;editable=1;fontFamily=Georgia;swimlaneFillColor=none;strokeColor=#6c8ebf;" vertex="1" parent="zLzugVfN4TNtNmc6y5zc-34">
          <mxGeometry x="215" width="35" height="36" as="geometry">
            <mxRectangle width="35" height="36" as="alternateBounds" />
          </mxGeometry>
        </mxCell>
        <mxCell id="zLzugVfN4TNtNmc6y5zc-42" value="" style="shape=tableRow;horizontal=0;startSize=0;swimlaneHead=0;swimlaneBody=0;top=0;left=0;bottom=0;right=0;collapsible=0;dropTarget=0;fillColor=none;points=[[0,0.5],[1,0.5]];portConstraint=eastwest;movable=1;resizable=1;rotatable=1;deletable=1;editable=1;connectable=1;fontFamily=Georgia;swimlaneFillColor=none;strokeColor=#CCCCCC;" vertex="1" parent="zLzugVfN4TNtNmc6y5zc-1">
          <mxGeometry y="178" width="250" height="36" as="geometry" />
        </mxCell>
        <mxCell id="zLzugVfN4TNtNmc6y5zc-43" style="shape=partialRectangle;html=1;whiteSpace=wrap;connectable=1;fillColor=#f8cecc;top=0;left=0;bottom=0;right=0;overflow=hidden;movable=1;resizable=1;rotatable=1;deletable=1;editable=1;fontFamily=Georgia;strokeColor=#b85450;swimlaneFillColor=none;" vertex="1" parent="zLzugVfN4TNtNmc6y5zc-42">
          <mxGeometry width="35" height="36" as="geometry">
            <mxRectangle width="35" height="36" as="alternateBounds" />
          </mxGeometry>
        </mxCell>
        <mxCell id="zLzugVfN4TNtNmc6y5zc-44" style="shape=partialRectangle;html=1;whiteSpace=wrap;connectable=1;fillColor=#f8cecc;top=0;left=0;bottom=0;right=0;overflow=hidden;movable=1;resizable=1;rotatable=1;deletable=1;editable=1;fontFamily=Georgia;strokeColor=#b85450;swimlaneFillColor=none;" vertex="1" parent="zLzugVfN4TNtNmc6y5zc-42">
          <mxGeometry x="35" width="37" height="36" as="geometry">
            <mxRectangle width="37" height="36" as="alternateBounds" />
          </mxGeometry>
        </mxCell>
        <mxCell id="zLzugVfN4TNtNmc6y5zc-45" style="shape=partialRectangle;html=1;whiteSpace=wrap;connectable=1;fillColor=#f8cecc;top=0;left=0;bottom=0;right=0;overflow=hidden;movable=1;resizable=1;rotatable=1;deletable=1;editable=1;fontFamily=Georgia;strokeColor=#b85450;swimlaneFillColor=none;" vertex="1" parent="zLzugVfN4TNtNmc6y5zc-42">
          <mxGeometry x="72" width="35" height="36" as="geometry">
            <mxRectangle width="35" height="36" as="alternateBounds" />
          </mxGeometry>
        </mxCell>
        <mxCell id="zLzugVfN4TNtNmc6y5zc-46" value="" style="shape=partialRectangle;html=1;whiteSpace=wrap;connectable=1;fillColor=none;top=0;left=0;bottom=0;right=0;overflow=hidden;movable=1;resizable=1;rotatable=1;deletable=1;editable=1;fontFamily=Georgia;swimlaneFillColor=none;strokeColor=#CCCCCC;" vertex="1" parent="zLzugVfN4TNtNmc6y5zc-42">
          <mxGeometry x="107" width="35" height="36" as="geometry">
            <mxRectangle width="35" height="36" as="alternateBounds" />
          </mxGeometry>
        </mxCell>
        <mxCell id="zLzugVfN4TNtNmc6y5zc-47" value="" style="shape=partialRectangle;html=1;whiteSpace=wrap;connectable=1;fillColor=#dae8fc;top=0;left=0;bottom=0;right=0;overflow=hidden;movable=1;resizable=1;rotatable=1;deletable=1;editable=1;fontFamily=Georgia;swimlaneFillColor=none;strokeColor=#6c8ebf;" vertex="1" parent="zLzugVfN4TNtNmc6y5zc-42">
          <mxGeometry x="142" width="36" height="36" as="geometry">
            <mxRectangle width="36" height="36" as="alternateBounds" />
          </mxGeometry>
        </mxCell>
        <mxCell id="zLzugVfN4TNtNmc6y5zc-48" style="shape=partialRectangle;html=1;whiteSpace=wrap;connectable=1;fillColor=#dae8fc;top=0;left=0;bottom=0;right=0;overflow=hidden;pointerEvents=1;movable=1;resizable=1;rotatable=1;deletable=1;editable=1;fontFamily=Georgia;swimlaneFillColor=none;strokeColor=#6c8ebf;" vertex="1" parent="zLzugVfN4TNtNmc6y5zc-42">
          <mxGeometry x="178" width="37" height="36" as="geometry">
            <mxRectangle width="37" height="36" as="alternateBounds" />
          </mxGeometry>
        </mxCell>
        <mxCell id="zLzugVfN4TNtNmc6y5zc-49" value="" style="shape=partialRectangle;html=1;whiteSpace=wrap;connectable=1;fillColor=#dae8fc;top=0;left=0;bottom=0;right=0;overflow=hidden;pointerEvents=1;movable=1;resizable=1;rotatable=1;deletable=1;editable=1;fontFamily=Georgia;swimlaneFillColor=none;strokeColor=#6c8ebf;" vertex="1" parent="zLzugVfN4TNtNmc6y5zc-42">
          <mxGeometry x="215" width="35" height="36" as="geometry">
            <mxRectangle width="35" height="36" as="alternateBounds" />
          </mxGeometry>
        </mxCell>
        <mxCell id="zLzugVfN4TNtNmc6y5zc-50" style="shape=tableRow;horizontal=0;startSize=0;swimlaneHead=0;swimlaneBody=0;top=0;left=0;bottom=0;right=0;collapsible=0;dropTarget=0;fillColor=none;points=[[0,0.5],[1,0.5]];portConstraint=eastwest;movable=1;resizable=1;rotatable=1;deletable=1;editable=1;connectable=1;fontFamily=Georgia;swimlaneFillColor=none;strokeColor=#CCCCCC;" vertex="1" parent="zLzugVfN4TNtNmc6y5zc-1">
          <mxGeometry y="214" width="250" height="35" as="geometry" />
        </mxCell>
        <mxCell id="zLzugVfN4TNtNmc6y5zc-51" style="shape=partialRectangle;html=1;whiteSpace=wrap;connectable=1;fillColor=#f8cecc;top=0;left=0;bottom=0;right=0;overflow=hidden;movable=1;resizable=1;rotatable=1;deletable=1;editable=1;fontFamily=Georgia;strokeColor=#b85450;swimlaneFillColor=none;" vertex="1" parent="zLzugVfN4TNtNmc6y5zc-50">
          <mxGeometry width="35" height="35" as="geometry">
            <mxRectangle width="35" height="35" as="alternateBounds" />
          </mxGeometry>
        </mxCell>
        <mxCell id="zLzugVfN4TNtNmc6y5zc-52" style="shape=partialRectangle;html=1;whiteSpace=wrap;connectable=1;fillColor=#f8cecc;top=0;left=0;bottom=0;right=0;overflow=hidden;movable=1;resizable=1;rotatable=1;deletable=1;editable=1;fontFamily=Georgia;strokeColor=#b85450;swimlaneFillColor=none;" vertex="1" parent="zLzugVfN4TNtNmc6y5zc-50">
          <mxGeometry x="35" width="37" height="35" as="geometry">
            <mxRectangle width="37" height="35" as="alternateBounds" />
          </mxGeometry>
        </mxCell>
        <mxCell id="zLzugVfN4TNtNmc6y5zc-53" style="shape=partialRectangle;html=1;whiteSpace=wrap;connectable=1;fillColor=#f8cecc;top=0;left=0;bottom=0;right=0;overflow=hidden;movable=1;resizable=1;rotatable=1;deletable=1;editable=1;fontFamily=Georgia;strokeColor=#b85450;swimlaneFillColor=none;" vertex="1" parent="zLzugVfN4TNtNmc6y5zc-50">
          <mxGeometry x="72" width="35" height="35" as="geometry">
            <mxRectangle width="35" height="35" as="alternateBounds" />
          </mxGeometry>
        </mxCell>
        <mxCell id="zLzugVfN4TNtNmc6y5zc-54" style="shape=partialRectangle;html=1;whiteSpace=wrap;connectable=1;fillColor=none;top=0;left=0;bottom=0;right=0;overflow=hidden;movable=1;resizable=1;rotatable=1;deletable=1;editable=1;fontFamily=Georgia;swimlaneFillColor=none;strokeColor=#CCCCCC;" vertex="1" parent="zLzugVfN4TNtNmc6y5zc-50">
          <mxGeometry x="107" width="35" height="35" as="geometry">
            <mxRectangle width="35" height="35" as="alternateBounds" />
          </mxGeometry>
        </mxCell>
        <mxCell id="zLzugVfN4TNtNmc6y5zc-55" style="shape=partialRectangle;html=1;whiteSpace=wrap;connectable=1;fillColor=#dae8fc;top=0;left=0;bottom=0;right=0;overflow=hidden;movable=1;resizable=1;rotatable=1;deletable=1;editable=1;fontFamily=Georgia;swimlaneFillColor=none;strokeColor=#6c8ebf;" vertex="1" parent="zLzugVfN4TNtNmc6y5zc-50">
          <mxGeometry x="142" width="36" height="35" as="geometry">
            <mxRectangle width="36" height="35" as="alternateBounds" />
          </mxGeometry>
        </mxCell>
        <mxCell id="zLzugVfN4TNtNmc6y5zc-56" style="shape=partialRectangle;html=1;whiteSpace=wrap;connectable=1;fillColor=#dae8fc;top=0;left=0;bottom=0;right=0;overflow=hidden;pointerEvents=1;movable=1;resizable=1;rotatable=1;deletable=1;editable=1;fontFamily=Georgia;swimlaneFillColor=none;strokeColor=#6c8ebf;" vertex="1" parent="zLzugVfN4TNtNmc6y5zc-50">
          <mxGeometry x="178" width="37" height="35" as="geometry">
            <mxRectangle width="37" height="35" as="alternateBounds" />
          </mxGeometry>
        </mxCell>
        <mxCell id="zLzugVfN4TNtNmc6y5zc-57" style="shape=partialRectangle;html=1;whiteSpace=wrap;connectable=1;fillColor=#dae8fc;top=0;left=0;bottom=0;right=0;overflow=hidden;pointerEvents=1;movable=1;resizable=1;rotatable=1;deletable=1;editable=1;fontFamily=Georgia;swimlaneFillColor=none;strokeColor=#6c8ebf;" vertex="1" parent="zLzugVfN4TNtNmc6y5zc-50">
          <mxGeometry x="215" width="35" height="35" as="geometry">
            <mxRectangle width="35" height="35" as="alternateBounds" />
          </mxGeometry>
        </mxCell>
        <mxCell id="zLzugVfN4TNtNmc6y5zc-58" value="&lt;span style=&quot;font-weight: 400;&quot;&gt;&quot;&lt;/span&gt;STUDY&lt;br&gt;&lt;span style=&quot;font-weight: normal;&quot;&gt;&amp;nbsp; &amp;nbsp;music&quot;&lt;/span&gt;" style="text;strokeColor=none;fillColor=none;html=1;fontSize=24;fontStyle=1;verticalAlign=middle;align=center;fontFamily=Georgia;" vertex="1" parent="1">
          <mxGeometry x="270" y="470" width="110" height="50" as="geometry" />
        </mxCell>
        <mxCell id="zLzugVfN4TNtNmc6y5zc-59" value="&lt;span style=&quot;font-weight: 400;&quot;&gt;&quot;study&lt;/span&gt;&lt;br&gt;&lt;span style=&quot;font-weight: normal;&quot;&gt;&amp;nbsp; &amp;nbsp;&lt;/span&gt;MUSIC&lt;span style=&quot;font-weight: normal;&quot;&gt;&quot;&lt;/span&gt;" style="text;strokeColor=none;fillColor=none;html=1;fontSize=24;fontStyle=1;verticalAlign=middle;align=center;fontFamily=Georgia;" vertex="1" parent="1">
          <mxGeometry x="410" y="330" width="110" height="50" as="geometry" />
        </mxCell>
        <mxCell id="zLzugVfN4TNtNmc6y5zc-60" value="" style="group" vertex="1" connectable="0" parent="1">
          <mxGeometry x="270" y="555" width="250" height="40" as="geometry" />
        </mxCell>
        <mxCell id="zLzugVfN4TNtNmc6y5zc-61" value="" style="endArrow=classic;startArrow=classic;html=1;rounded=0;fontFamily=Georgia;" edge="1" parent="zLzugVfN4TNtNmc6y5zc-60">
          <mxGeometry width="50" height="50" relative="1" as="geometry">
            <mxPoint x="48.61111111111111" y="19.58000000000004" as="sourcePoint" />
            <mxPoint x="90.27777777777777" y="19.58000000000004" as="targetPoint" />
            <Array as="points">
              <mxPoint x="72.91666666666666" y="19.58000000000004" />
            </Array>
          </mxGeometry>
        </mxCell>
        <mxCell id="zLzugVfN4TNtNmc6y5zc-62" value="" style="endArrow=classic;startArrow=classic;html=1;rounded=0;fontFamily=Georgia;" edge="1" parent="zLzugVfN4TNtNmc6y5zc-60">
          <mxGeometry width="50" height="50" relative="1" as="geometry">
            <mxPoint x="152.77777777777777" y="19.58000000000004" as="sourcePoint" />
            <mxPoint x="194.44444444444443" y="19.58000000000004" as="targetPoint" />
          </mxGeometry>
        </mxCell>
        <mxCell id="zLzugVfN4TNtNmc6y5zc-63" value="Equal" style="text;html=1;strokeColor=none;fillColor=none;align=center;verticalAlign=middle;whiteSpace=wrap;rounded=0;fontFamily=Georgia;fontStyle=1" vertex="1" parent="zLzugVfN4TNtNmc6y5zc-60">
          <mxGeometry x="102.08333333333333" y="5" width="41.666666666666664" height="30" as="geometry" />
        </mxCell>
        <mxCell id="zLzugVfN4TNtNmc6y5zc-64" value="STUDY" style="text;strokeColor=none;fillColor=none;html=1;fontSize=12;fontStyle=1;verticalAlign=middle;align=center;fontFamily=Georgia;" vertex="1" parent="zLzugVfN4TNtNmc6y5zc-60">
          <mxGeometry width="48.61111111111111" height="40" as="geometry" />
        </mxCell>
        <mxCell id="zLzugVfN4TNtNmc6y5zc-65" value="MUSIC" style="text;strokeColor=none;fillColor=none;html=1;fontSize=12;fontStyle=1;verticalAlign=middle;align=center;fontFamily=Georgia;" vertex="1" parent="zLzugVfN4TNtNmc6y5zc-60">
          <mxGeometry x="194.44444444444443" y="2.5" width="55.55555555555556" height="35" as="geometry" />
        </mxCell>
        <mxCell id="zLzugVfN4TNtNmc6y5zc-66" value="" style="group;rotation=-90;" vertex="1" connectable="0" parent="1">
          <mxGeometry x="110" y="404.5" width="250" height="40" as="geometry" />
        </mxCell>
        <mxCell id="zLzugVfN4TNtNmc6y5zc-67" value="" style="endArrow=classic;startArrow=classic;html=1;rounded=0;fontFamily=Georgia;" edge="1" parent="zLzugVfN4TNtNmc6y5zc-66">
          <mxGeometry width="50" height="50" relative="1" as="geometry">
            <mxPoint x="125" y="96" as="sourcePoint" />
            <mxPoint x="125" y="55" as="targetPoint" />
            <Array as="points">
              <mxPoint x="125" y="72" />
            </Array>
          </mxGeometry>
        </mxCell>
        <mxCell id="zLzugVfN4TNtNmc6y5zc-68" value="" style="endArrow=classic;startArrow=classic;html=1;rounded=0;fontFamily=Georgia;" edge="1" parent="zLzugVfN4TNtNmc6y5zc-66">
          <mxGeometry width="50" height="50" relative="1" as="geometry">
            <mxPoint x="125" y="-8" as="sourcePoint" />
            <mxPoint x="125" y="-49" as="targetPoint" />
          </mxGeometry>
        </mxCell>
        <mxCell id="zLzugVfN4TNtNmc6y5zc-69" value="Equal" style="text;html=1;strokeColor=none;fillColor=none;align=center;verticalAlign=middle;whiteSpace=wrap;rounded=0;fontFamily=Georgia;fontStyle=1;rotation=-90;" vertex="1" parent="zLzugVfN4TNtNmc6y5zc-66">
          <mxGeometry x="104" y="7" width="41.666666666666664" height="30" as="geometry" />
        </mxCell>
        <mxCell id="zLzugVfN4TNtNmc6y5zc-70" value="STUDY" style="text;strokeColor=none;fillColor=none;html=1;fontSize=12;fontStyle=1;verticalAlign=middle;align=center;fontFamily=Georgia;rotation=-90;" vertex="1" parent="zLzugVfN4TNtNmc6y5zc-66">
          <mxGeometry x="101" y="101" width="48.61111111111111" height="40" as="geometry" />
        </mxCell>
        <mxCell id="zLzugVfN4TNtNmc6y5zc-71" value="MUSIC" style="text;strokeColor=none;fillColor=none;html=1;fontSize=12;fontStyle=1;verticalAlign=middle;align=center;fontFamily=Georgia;rotation=-90;" vertex="1" parent="zLzugVfN4TNtNmc6y5zc-66">
          <mxGeometry x="97" y="-95" width="55.55555555555556" height="35" as="geometry" />
        </mxCell>
        <mxCell id="zLzugVfN4TNtNmc6y5zc-72" value="Duration" style="text;strokeColor=none;fillColor=none;html=1;fontSize=24;fontStyle=1;verticalAlign=middle;align=center;fontFamily=Times New Roman;" vertex="1" parent="1">
          <mxGeometry x="338" y="591" width="100" height="40" as="geometry" />
        </mxCell>
        <mxCell id="zLzugVfN4TNtNmc6y5zc-73" value="F0" style="text;strokeColor=none;fillColor=none;html=1;fontSize=24;fontStyle=1;verticalAlign=middle;align=center;fontFamily=Times New Roman;rotation=-90;" vertex="1" parent="1">
          <mxGeometry x="143" y="411" width="100" height="40" as="geometry" />
        </mxCell>
        <mxCell id="zLzugVfN4TNtNmc6y5zc-74" value="Condition:Reversed" style="text;strokeColor=none;fillColor=none;html=1;fontSize=24;fontStyle=1;verticalAlign=middle;align=center;fontFamily=Times New Roman;" vertex="1" parent="1">
          <mxGeometry x="360" y="235" width="100" height="40" as="geometry" />
        </mxCell>
        <mxCell id="zLzugVfN4TNtNmc6y5zc-75" value="Red : the duration and F0 still provide information but the spectral tilt is conflict.&amp;nbsp;&lt;br style=&quot;font-size: 15px;&quot;&gt;Blue : the only partial information is provided by F0 and duration and also spectral tilt is reversed,&lt;br style=&quot;font-size: 15px;&quot;&gt;" style="text;html=1;strokeColor=none;fillColor=none;align=left;verticalAlign=middle;whiteSpace=wrap;rounded=0;fontFamily=Times New Roman;fontSize=15;" vertex="1" parent="1">
          <mxGeometry x="250" y="655" width="470" height="30" as="geometry" />
        </mxCell>
        <mxCell id="zLzugVfN4TNtNmc6y5zc-76" value="" style="group" vertex="1" connectable="0" parent="1">
          <mxGeometry x="537" y="275" width="131" height="304" as="geometry" />
        </mxCell>
        <mxCell id="zLzugVfN4TNtNmc6y5zc-77" value="&lt;span style=&quot;font-weight: normal; font-size: 20px;&quot;&gt;spectral tilt modification:&lt;br style=&quot;font-size: 20px;&quot;&gt;&lt;/span&gt;&lt;ul style=&quot;font-size: 20px;&quot;&gt;&lt;li style=&quot;font-size: 20px;&quot;&gt;&lt;span style=&quot;font-weight: normal; font-size: 20px;&quot;&gt;MUSIC&amp;nbsp; &amp;nbsp; &amp;nbsp; more steeper&lt;/span&gt;&lt;/li&gt;&lt;li style=&quot;font-size: 20px;&quot;&gt;&lt;span style=&quot;font-weight: normal; font-size: 20px;&quot;&gt;study&amp;nbsp; &amp;nbsp; &amp;nbsp; &amp;nbsp; &amp;nbsp; more flatter&lt;/span&gt;&lt;/li&gt;&lt;/ul&gt;&lt;div style=&quot;text-align: justify; font-size: 20px;&quot;&gt;&lt;/div&gt;" style="text;strokeColor=none;fillColor=none;html=1;fontSize=20;fontStyle=1;verticalAlign=middle;align=left;fontFamily=Georgia;" vertex="1" parent="zLzugVfN4TNtNmc6y5zc-76">
          <mxGeometry x="5" width="126" height="140" as="geometry" />
        </mxCell>
        <mxCell id="zLzugVfN4TNtNmc6y5zc-78" value="&lt;span style=&quot;font-size: 20px;&quot;&gt;&lt;br style=&quot;font-size: 20px;&quot;&gt;&lt;/span&gt;&lt;ul style=&quot;font-size: 20px;&quot;&gt;&lt;li style=&quot;font-size: 20px;&quot;&gt;&lt;span style=&quot;font-size: 20px;&quot;&gt;STUDY&amp;nbsp; &amp;nbsp; &amp;nbsp; &amp;nbsp; more steeper&lt;/span&gt;&lt;/li&gt;&lt;li style=&quot;font-size: 20px;&quot;&gt;&lt;span style=&quot;font-size: 20px;&quot;&gt;music&amp;nbsp; &amp;nbsp; &amp;nbsp; &amp;nbsp; &amp;nbsp; &amp;nbsp;more flatter&lt;/span&gt;&lt;/li&gt;&lt;/ul&gt;&lt;div style=&quot;text-align: justify; font-size: 20px;&quot;&gt;&lt;/div&gt;" style="text;strokeColor=none;fillColor=none;html=1;fontSize=20;fontStyle=0;verticalAlign=middle;align=left;fontFamily=Georgia;" vertex="1" parent="zLzugVfN4TNtNmc6y5zc-76">
          <mxGeometry y="164" width="126" height="140" as="geometry" />
        </mxCell>
      </root>
    </mxGraphModel>
  </diagram>
</mxfile>
